<svg xmlns="http://www.w3.org/2000/svg" version="1.1" xmlns:xlink="http://www.w3.org/1999/xlink" xmlns:svgjs="http://svgjs.com/svgjs" width="1280" height="720" preserveAspectRatio="none" viewBox="0 0 1280 720"><g mask="url(&quot;#SvgjsMask1018&quot;)" fill="none"><rect width="1280" height="720" x="0" y="0" fill="#0e2a47"></rect><path d="M1093.19,620.221C1117.457,620.412,1134.764,598.557,1145.366,576.727C1154.553,557.81,1152.828,536.443,1142.876,517.917C1132.268,498.17,1115.56,481.041,1093.19,479.6C1068.405,478.003,1042.606,488.741,1031.024,510.711C1019.996,531.631,1030.742,555.351,1042.417,575.917C1054.302,596.853,1069.117,620.032,1093.19,620.221" fill="rgba(28, 83, 142, 0.4)" class="triangle-float3"></path><path d="M513.9939383834428 211.5917361663819L580.3188747263903 38.809369782857175 407.5365083428655-27.515566560090235 341.2115719999181 145.2667998234345z" fill="rgba(28, 83, 142, 0.4)" class="triangle-float2"></path><path d="M-34.921904831459685 304.24342343731627L-15.389179713719756 443.22598433573603 183.31829907503993 344.43561620991625z" fill="rgba(28, 83, 142, 0.4)" class="triangle-float1"></path><path d="M435.8201662767757 192.50576630349286L630.9508121234761 56.15077231455996 443.91653310267344-35.07194074280562z" fill="rgba(28, 83, 142, 0.4)" class="triangle-float3"></path><path d="M317.6089362961619 739.8128932901443L517.7505927855403 693.6065510875676 471.5442505829636 493.4648945981892 271.40259409358526 539.6712368007659z" fill="rgba(28, 83, 142, 0.4)" class="triangle-float2"></path><path d="M533.5910790315191 112.53852883675336L601.357203397049 213.00593980846807 718.1752576718561 61.12304777431585z" fill="rgba(28, 83, 142, 0.4)" class="triangle-float1"></path><path d="M282.738,299.666C310.1,299.317,334.685,283.014,347.563,258.87C359.732,236.055,356.449,208.736,343.024,186.637C330.142,165.432,307.517,153.429,282.738,152.164C255.216,150.759,225.363,156.517,210.756,179.885C195.458,204.36,200.115,235.823,214.982,260.562C229.378,284.518,254.791,300.023,282.738,299.666" fill="rgba(28, 83, 142, 0.4)" class="triangle-float3"></path><path d="M603.2517612421168-27.913093469292875L600.4111062624711 126.39994283979522 719.5354969711522 63.06038075906249z" fill="rgba(28, 83, 142, 0.4)" class="triangle-float3"></path><path d="M1089.5192593323552-41.332903438384285L949.3844582820392-21.63824152791927 1048.9938516728948 178.71662909232228z" fill="rgba(28, 83, 142, 0.4)" class="triangle-float1"></path><path d="M72.207,423.092C97.066,421.835,117.482,404.288,128.415,381.926C138.097,362.122,132.958,339.847,122.354,320.521C111.218,300.225,95.313,280.915,72.207,279.486C46.92,277.922,23.32,292.007,10.024,313.573C-3.99,336.302,-7.979,364.937,5.205,388.157C18.534,411.633,45.245,424.456,72.207,423.092" fill="rgba(28, 83, 142, 0.4)" class="triangle-float1"></path><path d="M200.731,565.474C249.856,565.857,304.522,559.442,329.45,517.11C354.622,474.363,334.782,422.681,310.188,379.599C285.315,336.029,250.889,290.527,200.731,291.627C151.672,292.703,123.281,341.42,99.286,384.224C76.041,425.691,52.223,473.648,75.441,515.13C99.002,557.225,152.492,565.098,200.731,565.474" fill="rgba(28, 83, 142, 0.4)" class="triangle-float2"></path><path d="M522.2749913361745 178.69559977936137L593.2354102100779 19.72379887718398 441.6322524515683 32.98735653578589z" fill="rgba(28, 83, 142, 0.4)" class="triangle-float1"></path><path d="M158.118,185.313C183.1,185.564,206.965,173.988,219.946,152.642C233.446,130.443,236.649,101.541,222.194,79.951C208.872,60.054,182.058,59.825,158.118,60.296C135.328,60.744,110.756,63.323,98.263,82.388C84.746,103.017,86.009,130.1,98.407,151.42C110.739,172.625,133.589,185.066,158.118,185.313" fill="rgba(28, 83, 142, 0.4)" class="triangle-float2"></path></g><defs><mask id="SvgjsMask1018"><rect width="1280" height="720" fill="#ffffff"></rect></mask><style>
            @keyframes float1 {
                0%{transform: translate(0, 0)}
                50%{transform: translate(-10px, 0)}
                100%{transform: translate(0, 0)}
            }

            .triangle-float1 {
                animation: float1 5s infinite;
            }

            @keyframes float2 {
                0%{transform: translate(0, 0)}
                50%{transform: translate(-5px, -5px)}
                100%{transform: translate(0, 0)}
            }

            .triangle-float2 {
                animation: float2 4s infinite;
            }

            @keyframes float3 {
                0%{transform: translate(0, 0)}
                50%{transform: translate(0, -10px)}
                100%{transform: translate(0, 0)}
            }

            .triangle-float3 {
                animation: float3 6s infinite;
            }
        </style></defs></svg>